<mxfile host="app.diagrams.net" modified="2024-04-12T12:33:01.572Z" agent="Mozilla/5.0 (Windows NT 10.0; Win64; x64) AppleWebKit/537.36 (KHTML, like Gecko) Chrome/123.0.0.0 Safari/537.36" version="24.2.3" etag="khVhvLUDl1mF6hPNP1-P" type="github">
  <diagram name="Pagina-1" id="rjsDO4bL9s0KEf7qmAAg">
    <mxGraphModel>
      <root>
        <mxCell id="0" />
        <mxCell id="1" parent="0" />
      </root>
    </mxGraphModel>
  </diagram>
</mxfile>
